<?xml version="1.0" encoding="utf-8"?>
<!-- Generator: Adobe Illustrator 24.1.0, SVG Export Plug-In . SVG Version: 6.00 Build 0)  -->
<svg version="1.1" id="Layer_1" xmlns="http://www.w3.org/2000/svg" xmlns:xlink="http://www.w3.org/1999/xlink" x="0px" y="0px"
	 viewBox="0 0 1200 800" style="enable-background:new 0 0 1200 800;" xml:space="preserve">
<style type="text/css">
	.st0{display:none;}
	.st1{fill:#A5D5A1;}
	.st2{fill:#BCBCBC;}
	.st3{fill:#EBEBEB;stroke:#D2D2D2;stroke-width:5;stroke-linejoin:round;stroke-miterlimit:10;}
	.st4{fill:#E6DDAE;}
	.st5{fill:#BEBEBE;}
	.st6{display:inline;fill:#DCDBDB;}
	.st7{display:inline;fill:none;stroke:#FFFFFF;stroke-width:20;}
	.st8{display:inline;fill:#BCBCBC;}
	.st9{display:inline;fill:#A5D5A1;}
	.st10{display:inline;fill:#9BD9E3;}
	.st11{display:inline;}
	.st12{fill:#636363;}
</style>
<g id="Layer_2_1_" class="st0">
	
		<image style="display:inline;overflow:visible;enable-background:new    ;" width="1601" height="1523" xlink:href="51724AB3340F9CE0.jpeg"  transform="matrix(-0.3062 0.7442 -0.7442 -0.3062 1275.3669 1.2627)">
	</image>
</g>
<g id="Layer_3">
	<rect x="211.9" y="474.6" class="st1" width="95.5" height="50.8"/>
	<polygon class="st1" points="631.6,218.7 459.5,221.5 459.5,189.3 631.6,175.9 	"/>
	<polygon class="st1" points="795.3,210.4 650.6,210.4 650.6,164.5 795.3,155.3 	"/>
	<polygon class="st1" points="435.3,245.7 317.2,245.7 317.2,218.4 435.3,207.8 	"/>
	<rect x="462" y="514.7" class="st1" width="182.2" height="45.1"/>
	<polygon class="st1" points="658.5,537 733.1,535.8 733.1,558.6 658.5,559.8 	"/>
	<rect x="800.4" y="442" class="st2" width="31.9" height="75.9"/>
	<rect x="835.6" y="442" class="st2" width="45.9" height="75.9"/>
	<rect x="211.9" y="232" class="st2" width="73.5" height="231.1"/>
	<rect x="193.4" y="-152.4" class="st2" width="275.5" height="200.7"/>
	<g>
		<path class="st3" d="M1002,144.4c47.6,4.4,189.8,30,229.1,38.4l29.7-95.8c0,0-235-51.4-311.1-52S757.3,51.2,692.9,60.4
			S440.8,93.2,329,102.5s-161.6,11.9-161.6,11.9l-10.8-124l-67-4.3L103,128l-122.2,13.3v117.1l131.8-22
			c25.5,208.1,0.5,367.4,0.5,367.4L95.1,800h52.1c0,0,32.9-44.5,45.1-51.9s82.4,0.6,94.7-5.6c12.2-6.2,3.7-29.1-0.5-35.9
			c-4.3-6.8-49.5-72.5-14.9-84.9s80.9-24.7,80.9-24.7c146.8-13,253.2-2,253.2-2c157.9-0.2,149.4-13.6,149.4-13.6
			c15.3-4.5,31-51.9,31-51.9C792.3,508.9,801,444,801,444c28.7-143.7,64.1-219.5,64.1-219.5c70.3-1.1,135.9-1.6,177.7-1.3
			c16.4,0.1,43,1,70.9,2.2c2.6,0.1,5.2,0.2,7.7,0.3l3.6,410.5l-4.2,168.9h32.8l-10.2-166.3l4.2-411.9c27.1,1.3,51.8,2.7,65.1,3.7
			l6-20.4c-23.2-1.8-46.8-3.3-70.9-4.7l0.4-36.8l-27.4-5.4l0.3,40.8c-23.4-1.1-47.3-1.9-71.5-2.5c-60.8-1.5-126.8-0.5-182.6,1.2
			c14.9-56.4-6.1-62.7-6.1-62.7C903.5,138.8,950.8,139.6,1002,144.4z M835.5,232c-8.2,35-63.7,212-69.4,254.8
			c-9.1,40.6-7.1,69.4-28.9,79.9s-110.7,4.8-181.4,1.7c-70.8-3.1-196.8,5-196.8,5c-35.6,3.1-75,16.1-75,16.1
			c-46.8,9.9-67.1-15.4-67.1-15.4c-19.1-16.6-18.3-76.3-18.3-76.3c0.5-16.7-0.1-65.8,1.1-101.6s-6.1-178.5-6.1-178.5
			c26.9-2.2,170.2-29.1,170.2-29.1c87.2-16.1,405.3-47.4,405.3-47.4C871.6,142.6,842.5,192.4,835.5,232z"/>
	</g>
	<g>
		<path class="st4" d="M1106.9,937.6c-0.4,0-0.8-0.1-1.1-0.3c-68.8-34-140.1-64-212.2-89.3c-52.9-18.6-176.9-62.1-324.1-82
			c-46.3-6.3-119.5-10-195.8-10C277,756,91,762-67.4,802.4c-0.2,0-0.4,0.1-0.6,0.1c-0.7,0-1.3-0.3-1.8-0.8c-0.6-0.7-0.8-1.6-0.6-2.5
			l48.8-149c0.3-0.9,1.1-1.6,2.1-1.7c145.6-17,431.7-32.2,612.2-32.4h4.9c223.3,0,448.7,18,670,53.3c1.3,0.2,2.2,1.3,2.1,2.6
			l-7,117.6c-0.1,0.8-0.4,1.5-1.1,1.9c-0.4,0.3-0.9,0.4-1.4,0.4c-0.3,0-0.5,0-0.8-0.1c-57-19-115.5-35.3-173.8-48.3
			c-100.9-22.5-204.3-35.9-307.8-40.1c18.2,3.5,36.3,7.3,54.2,11.5c117.7,27.5,232.9,71.3,342.7,130.5c0.6,0.3,1.1,1,1.3,1.7
			c0.2,0.7,0,1.5-0.4,2l-66.5,87.5C1108.4,937.2,1107.6,937.6,1106.9,937.6z"/>
		<path class="st5" d="M597.5,618.6c249.2,0,474.2,22.1,669.6,53.3l-7,117.6c-53.3-17.8-111.4-34.4-174.1-48.4
			C959.2,712.9,843.2,702,743.3,700c28.5,4.7,57.9,10.4,88,17.4c132.8,31,247.2,79.1,342.1,130.2l-66.5,87.5
			c-53.7-26.6-125.6-59-212.5-89.5c-57.6-20.2-180-62.6-324.6-82.1c-42.1-5.7-112.6-10-196.1-10C238.8,753.5,70,764.8-68,800
			c16.2-49.7,32.5-99.3,48.8-149c147.9-17.3,435.8-32.2,611.9-32.4C594.2,618.6,595.9,618.6,597.5,618.6 M597.5,613.6v5V613.6
			c-1.6,0-3.3,0-4.9,0C412.1,613.8,125.9,629-19.8,646c-1.9,0.2-3.6,1.6-4.2,3.4l-24.4,74.5l-24.4,74.5c-0.6,1.7-0.2,3.6,1.1,5
			c1,1,2.3,1.6,3.7,1.6c0.4,0,0.8,0,1.2-0.2c158.1-40.3,343.9-46.3,440.5-46.3c76.1,0,149.2,3.7,195.4,10
			c147,19.9,270.7,63.3,323.6,81.9c72,25.3,143.2,55.3,211.9,89.2c0.7,0.3,1.5,0.5,2.2,0.5c1.5,0,3-0.7,4-2l66.5-87.5
			c0.9-1.2,1.2-2.7,0.9-4.1c-0.3-1.4-1.2-2.7-2.5-3.3C1065.8,784,950.3,740,832.4,712.5c-7.2-1.7-14.5-3.3-21.7-4.9
			C903,713.1,995,726,1085,746c58.3,13,116.7,29.2,173.6,48.2c0.5,0.2,1.1,0.3,1.6,0.3c1,0,2-0.3,2.8-0.9c1.3-0.9,2.1-2.3,2.2-3.8
			l7-117.6c0.2-2.6-1.7-4.8-4.2-5.2C1042.6,631,816.9,613.6,597.5,613.6L597.5,613.6z"/>
	</g>
	<rect x="1012.2" y="336" class="st1" width="95.5" height="271"/>
</g>
<g id="Layer_1_1_" class="st0">
	<path class="st6" d="M1200,116.8H0V-3.1h1200V116.8z"/>
	<path class="st7" d="M1200,56.9H0"/>
	<path class="st8" d="M1055.9,793.9H912.8V196.7h143.1V793.9z"/>
	<path class="st8" d="M1200,585.2h-127V196.7h127V585.2z"/>
	<path class="st8" d="M896.7,736.6H781.3v-36.2h115.4V736.6z"/>
	<circle class="st9" cx="273.1" cy="743" r="51.1"/>
	<path class="st8" d="M284.8,235h-86.9v-94.4h86.9V235z"/>
	<path class="st6" d="M130.5,801.1H0V117h130.5V801.1z"/>
	<path class="st7" d="M65.2,796.9v-734"/>
	<path class="st8" d="M284.8,505.8h-43.4V255h43.4V505.8z"/>
	<path class="st8" d="M221.1,505.7h-68.8V255.1h68.8V505.7z"/>
	<path class="st8" d="M182.6,196.7h-30.3v-57.5h30.3V196.7z"/>
	<path class="st8" d="M770.7,736.6H655.3v-36.2h115.4V736.6z"/>
	<path class="st8" d="M896.7,783.1H781.3v-36.2h115.4V783.1z"/>
	<path class="st8" d="M770.7,783.1H655.3v-36.2h115.4V783.1z"/>
	<path class="st10" d="M1170.7,770.4c-30.4,23.4-88.2,6.4-96.9-18.4c-7.7-22,25.6-43.5,15-75.2c-3.8-11.5-10.9-16.8-11.7-31.7
		c-0.1-2.4-1-24,10-31.7c16.5-11.6,57.1,9.5,78.5,38.4C1189.7,684.3,1203.3,745.2,1170.7,770.4z"/>
	<circle class="st9" cx="190.6" cy="578.6" r="42.8"/>
	<circle class="st9" cx="1158" cy="156.8" r="30"/>
	<circle class="st9" cx="1086" cy="156.8" r="30"/>
	<ellipse transform="matrix(0.7071 -0.7071 0.7071 0.7071 185.442 761.3431)" class="st9" cx="1011.7" cy="156.8" rx="30" ry="30"/>
	<path class="st8" d="M637.5,783.1H340.3v-80.8h297.2V783.1z"/>
	<circle class="st9" cx="176.3" cy="751.5" r="27.1"/>
	<path class="st6" d="M898.6,683.5H127V641h771.6V683.5z"/>
	<circle class="st9" cx="265.1" cy="595.7" r="22.7"/>
	<circle class="st9" cx="940.8" cy="156.8" r="30"/>
	<g class="st11">
		<path class="st12" d="M251.2,194.2v-14.8c0-2-1.6-3.6-3.6-3.6h-4.4v-2h4v-2h-12v2h4v2h-4.4c-2,0-3.6,1.6-3.6,3.6v14.8
			c0,2,1.6,3.6,3.6,3.6h0.4l-1.4,2h-2.6v2h1.4l-1.4,2h4l1.2-2h9.8l1.2,2h4l-1.4-2h1.2v-2h-2.6l-1.4-2h0.4
			C249.6,197.8,251.2,196.2,251.2,194.2z M233.2,179.6c0-1,0.8-1.8,1.8-1.8h12.2c1.2,0,2,0.8,2,1.8v4.2c0,1.2-0.8,2-1.8,2H235
			c-1,0-1.8-0.8-1.8-1.8V179.6z M233.2,193.8c0-1.2,0.8-2,2-2s2,0.8,2,2s-0.8,2-2,2S233.2,195,233.2,193.8z M245,199.8h-7.6l1.2-2
			h5.2L245,199.8z M245.2,193.8c0-1.2,0.8-2,2-2s2,0.8,2,2s-0.8,2-2,2S245.2,195,245.2,193.8z"/>
		<path class="st12" d="M499.3,741c-0.4,0-0.8,0.1-1.3,0.1l-3.3-7.3c-0.2-0.4-0.6-0.6-1-0.6h-2.1c-0.6,0-1.1,0.5-1.1,1.1
			s0.5,1.1,1.1,1.1h1.4l0.9,2h-9.2l-0.6-1.4h0.5c0.6,0,1.1-0.5,1.1-1.1s-0.5-1.1-1.1-1.1h-4c-0.6,0-1.1,0.5-1.1,1.1s0.5,1.1,1.1,1.1
			h1.1l1.1,2.3l-2.1,3.1c-0.7-0.3-1.4-0.4-2.2-0.4c-3.1,0-5.6,2.5-5.6,5.6s2.5,5.6,5.6,5.6c2.7,0,5-1.9,5.5-4.5h0.9
			c0.5,1.3,1.9,2.1,3.4,1.8c1.6-0.3,2.6-1.9,2.3-3.5c0-0.2-0.1-0.4-0.2-0.6l4.9-5l0.8,1.7c-1.4,1-2.3,2.7-2.3,4.5
			c0,3.1,2.5,5.6,5.6,5.6s5.6-2.5,5.6-5.6C504.9,743.5,502.4,741,499.3,741L499.3,741z M485.5,744.5c-0.3,0.3-0.5,0.6-0.6,1H484
			c-0.2-1.1-0.7-2.1-1.5-2.8l1.3-2L485.5,744.5L485.5,744.5z M481.2,744.6c0.2,0.3,0.4,0.6,0.5,0.9h-1.1L481.2,744.6z M478.5,750
			c-1.9,0-3.4-1.5-3.4-3.4s1.5-3.4,3.4-3.4c0.3,0,0.6,0.1,0.9,0.1l-1.8,2.6c-0.2,0.3-0.3,0.8-0.1,1.1c0.2,0.4,0.6,0.6,1,0.6h3.2
			C481.2,749,480,750,478.5,750L478.5,750z M488.8,743.9c-0.4-0.2-0.8-0.2-1.3-0.2l-1.8-4h7.3C493,739.6,488.8,743.9,488.8,743.9z
			 M499.3,750c-1.9,0-3.4-1.5-3.4-3.4c0-1,0.4-1.8,1.1-2.5l1.3,2.9c0.2,0.4,0.6,0.6,1,0.6c0.2,0,0.3,0,0.4-0.1
			c0.6-0.2,0.8-0.9,0.5-1.4l-1.3-2.9c0.1,0,0.2,0,0.3,0c1.9,0,3.4,1.5,3.4,3.4C502.7,748.5,501.2,750,499.3,750z"/>
		<g>
			<path class="st12" d="M175.8,373.3c0.2,0,0.3,0,0.6,0c1,0,1.8-0.2,2.4-0.8c0.4-0.4,0.7-1,0.7-1.7s-0.3-1.3-0.8-1.7
				c-0.5-0.4-1.2-0.6-2.2-0.6s-1.7,0.1-2.2,0.2v7.2h1.6L175.8,373.3L175.8,373.3z M175.8,369.9c0.1,0,0.3-0.1,0.7-0.1
				c0.8,0,1.3,0.4,1.3,1.1s-0.5,1.2-1.4,1.2c-0.2,0-0.4,0-0.6,0V369.9L175.8,369.9z"/>
			<path class="st12" d="M172.7,378.2h8.1c1,0,1.9-0.8,1.9-1.9v-8.1c0-1-0.8-1.9-1.9-1.9h-8.1c-1,0-1.9,0.8-1.9,1.9v8.1
				C170.9,377.4,171.7,378.2,172.7,378.2z M172.3,368.3c0-0.3,0.2-0.5,0.5-0.5h7.9c0.3,0,0.5,0.2,0.5,0.5v7.9c0,0.3-0.2,0.5-0.5,0.5
				h-7.9c-0.3,0-0.5-0.2-0.5-0.5C172.3,376.2,172.3,368.3,172.3,368.3z"/>
			<path class="st12" d="M178.4,388c-1.8,0-3.3,1.5-3.3,3.3s1.5,3.3,3.3,3.3s3.3-1.5,3.3-3.3C181.7,389.4,180.2,388,178.4,388z
				 M178.4,392.2c-0.5,0-1-0.4-1-1c0-0.5,0.4-1,1-1c0.5,0,1,0.4,1,1C179.4,391.8,179,392.2,178.4,392.2z"/>
			<path class="st12" d="M202.2,388.5l-0.5-4.3c-0.1-0.8-0.8-1.4-1.7-1.4l-1.2,0.1l-3.6-3.3c-0.3-0.3-0.8-0.5-1.3-0.5h-7.4
				c-1.7,0-3.3,0.6-4.5,1.6l-4.1,3.3l-5.5,1.4c-0.7,0.2-1.2,0.8-1.2,1.5v1.6c-0.2,0-0.4,0.2-0.4,0.4v2.1c0,0.3,0.2,0.5,0.5,0.5h3.1
				c0-0.1,0-0.3,0-0.4c0-2.3,1.8-4.1,4.1-4.1s4.1,1.8,4.1,4.1c0,0.1,0,0.3,0,0.4h8.6c0-0.1,0-0.3,0-0.4c0-2.3,1.8-4.1,4.1-4.1
				s4.1,1.8,4.1,4.1c0,0.1,0,0.3,0,0.4h2.9c0.3,0,0.5-0.2,0.5-0.5v-2C202.7,388.8,202.5,388.5,202.2,388.5L202.2,388.5z
				 M191.2,383.2l-10.3,0.5l2-1.6c1.1-0.9,2.4-1.3,3.8-1.3h4.5C191.2,380.8,191.2,383.2,191.2,383.2z M192.9,383.1v-2.3h0.7
				c0.2,0,0.5,0.1,0.6,0.2l2.1,1.9C196.3,383,192.9,383.1,192.9,383.1z"/>
			<path class="st12" d="M195.2,388c-1.8,0-3.3,1.5-3.3,3.3s1.5,3.3,3.3,3.3s3.3-1.5,3.3-3.3C198.4,389.4,197,388,195.2,388z
				 M195.2,392.2c-0.5,0-1-0.4-1-1c0-0.5,0.4-1,1-1c0.5,0,1,0.4,1,1C196.2,391.8,195.7,392.2,195.2,392.2z"/>
		</g>
		<path class="st12" d="M287.6,752.3h-5.8v-2.2h1.1c0.4,0,0.7-0.3,0.7-0.7s-0.3-0.7-0.7-0.7h-3.7c-0.4,0-0.7,0.3-0.7,0.7
			s0.3,0.7,0.7,0.7h1.1v2.2h-11.6v-5h5.8c0.3,0,0.6-0.2,0.7-0.4c0.1-0.3,0.1-0.6-0.1-0.8l-3.7-4h1.7c0.3,0,0.6-0.2,0.7-0.4
			c0.1-0.3,0.1-0.6-0.1-0.8l-3.4-3.7h1.7c0.3,0,0.6-0.2,0.7-0.4c0.1-0.3,0.1-0.6-0.1-0.8l-4.7-5c-0.3-0.3-0.8-0.3-1.1,0l-4.7,5
			c-0.2,0.2-0.2,0.5-0.1,0.8s0.4,0.4,0.7,0.4h1.7l-3.4,3.7c-0.2,0.2-0.2,0.5-0.1,0.8s0.4,0.4,0.7,0.4h1.7l-3.7,4
			c-0.2,0.2-0.2,0.5-0.1,0.8s0.4,0.4,0.7,0.4h5.8v5h-7.3c-0.8,0-1.5,0.7-1.5,1.5s0.7,1.5,1.5,1.5h29.1c0.8,0,1.5-0.7,1.5-1.5
			C289.1,753,288.4,752.3,287.6,752.3L287.6,752.3z"/>
	</g>
</g>
</svg>
